<?xml version="1.0" encoding="utf-8"?>
<!-- Generator: Adobe Illustrator 16.0.0, SVG Export Plug-In . SVG Version: 6.00 Build 0)  -->
<!DOCTYPE svg PUBLIC "-//W3C//DTD SVG 1.1//EN" "http://www.w3.org/Graphics/SVG/1.1/DTD/svg11.dtd">
<svg version="1.1" id="Capa_1" xmlns="http://www.w3.org/2000/svg" xmlns:xlink="http://www.w3.org/1999/xlink" x="0px" y="0px"
	 width="200px" height="200px" viewBox="0 0 200 200" enable-background="new 0 0 200 200" xml:space="preserve">
<path d="M67.167,80.833c-6.449,0-6.449,10,0,10S73.615,80.833,67.167,80.833z"/>
<path fill="#FFE81F" d="M199.714,77.142c-0.69-2.121-2.522-3.668-4.729-3.988l-61.733-8.969L105.645,8.248
	c-0.987-2-3.022-3.27-5.253-3.27c-2.23,0-4.266,1.27-5.254,3.27L67.531,64.177L5.028,73.154c-2.219,0.316-4.062,1.871-4.746,4.008
	c-0.688,2.133-0.094,4.469,1.523,6.02l45.41,43.539l-10.539,61.453c-0.379,2.195,0.527,4.418,2.328,5.73
	c1.809,1.309,4.199,1.484,6.172,0.445l55.215-29.027l55.214,29.025c1.967,1.033,4.363,0.868,6.168-0.445
	c1.806-1.312,2.711-3.534,2.332-5.729l-10.543-61.483l44.668-43.539C199.827,81.591,200.4,79.263,199.714,77.142z M96.358,37.117
	c0.245-0.529,0.49-1.058,0.734-1.587c0.1,0.1,0.205,0.194,0.303,0.296C97.031,36.243,96.688,36.675,96.358,37.117z M99.967,24.939
	l0.424-0.859l0.904,1.831C100.866,25.574,100.421,25.252,99.967,24.939z"/>
</svg>
