<?xml version="1.0" encoding="utf-8"?>
<!-- Generator: Adobe Illustrator 16.0.0, SVG Export Plug-In . SVG Version: 6.00 Build 0)  -->
<!DOCTYPE svg PUBLIC "-//W3C//DTD SVG 1.1//EN" "http://www.w3.org/Graphics/SVG/1.1/DTD/svg11.dtd">
<svg version="1.1" id="Capa_1" xmlns="http://www.w3.org/2000/svg" xmlns:xlink="http://www.w3.org/1999/xlink" x="0px" y="0px"
	 width="200px" height="200px" viewBox="0 0 200 200" enable-background="new 0 0 200 200" xml:space="preserve">
<g>
	<g>
		<path fill="#FFE81F" d="M199.714,77.142c-0.691-2.121-2.523-3.668-4.73-3.988l-61.733-8.969L105.645,8.248
			c-0.988-2-3.023-3.27-5.254-3.27c-2.23,0-4.266,1.27-5.254,3.27L67.531,64.177L5.028,73.154c-2.219,0.316-4.062,1.871-4.746,4.008
			c-0.688,2.133-0.094,4.469,1.523,6.02l45.41,43.539l-10.539,61.453c-0.379,2.195,0.527,4.418,2.328,5.73
			c1.809,1.309,4.199,1.484,6.172,0.445l55.215-29.027l55.215,29.026c1.966,1.033,4.363,0.868,6.168-0.445
			c1.805-1.312,2.711-3.535,2.332-5.73l-10.543-61.483l44.667-43.539C199.827,81.591,200.401,79.263,199.714,77.142z
			 M143.176,120.446c-1.383,1.348-2.012,3.289-1.684,5.188l9.059,52.816l-47.434-24.938c-0.852-0.449-1.789-0.672-2.727-0.672
			s-1.875,0.223-2.727,0.672L50.231,178.45l9.059-52.816c0.332-1.918-0.312-3.871-1.719-5.219L18.595,83.044l53.66-7.707
			c1.91-0.273,3.566-1.473,4.422-3.203l23.714-48.054l23.715,48.054c0.855,1.727,2.504,2.926,4.414,3.203l53.031,7.707
			L143.176,120.446z"/>
	</g>
</g>
</svg>
